PathFileType	4	(X/Y/Z)	Run_500 02
DataRate	CameraRate	NumFrames	NumMarkers	Units	OrigDataRate	OrigDataStartFrame	OrigNumFrames
120	120	4	42	mm	120	399	128
Frame#	Time	LASI			RASI			LPSI			RPSI			RTH1			RTH2			RTH3			LTH1			LTH2			LTH3			RTB1			RTB2			LTB1			LTB2			LTB3			RCAL			RTOE			RMT5			LCAL			LTOE			LMT5			LACR			RACR			CLAV			C7			RUA1			RUA2			RUA3			RLEL			RMEL			LUA1			LUA2			LUA3			LLEL			LMEL			RFAsuperior			RFAradius			RFAulna			LFAsuperior			LFAradius			LFAulna			RTB3		
		X1	Y1	Z1	X2	Y2	Z2	X3	Y3	Z3	X4	Y4	Z4	X5	Y5	Z5	X6	Y6	Z6	X7	Y7	Z7	X8	Y8	Z8	X9	Y9	Z9	X10	Y10	Z10	X11	Y11	Z11	X12	Y12	Z12	X13	Y13	Z13	X14	Y14	Z14	X15	Y15	Z15	X16	Y16	Z16	X17	Y17	Z17	X18	Y18	Z18	X19	Y19	Z19	X20	Y20	Z20	X21	Y21	Z21	X22	Y22	Z22	X23	Y23	Z23	X24	Y24	Z24	X25	Y25	Z25	X26	Y26	Z26	X27	Y27	Z27	X28	Y28	Z28	X29	Y29	Z29	X30	Y30	Z30	X31	Y31	Z31	X32	Y32	Z32	X33	Y33	Z33	X34	Y34	Z34	X35	Y35	Z35	X36	Y36	Z36	X37	Y37	Z37	X38	Y38	Z38	X39	Y39	Z39	X40	Y40	Z40	X41	Y41	Z41	X42	Y42	Z42	

399	  3.325000	942.079525	1029.674460	-787.283723	958.741409	1044.100367	-528.658905	771.588805	1080.620368	-679.155648	773.861321	1077.599043	-593.988474	957.226477	897.706680	-468.143667	1071.632973	855.594596	-481.176244	1089.326580	730.505160	-501.512321	814.113076	830.623420	-820.652409	822.580850	699.732225	-806.947388	718.722975	614.047573	-774.523602	1167.556872	518.468690	-596.266962	1107.728348	481.518921	-526.993602	652.527280	385.200488	-701.555548	565.071258	338.136845	-737.391079	510.133231	246.864041	-659.316284	858.592700	353.578074	-611.043479	1030.471564	194.667614	-621.445549	959.579266	213.574924	-532.877005	335.188720	214.089093	-629.203423	512.199054	 64.990558	-596.537216	436.291524	 68.351009	-684.767905	1004.259882	1506.280102	-803.536375	917.917392	1526.881553	-473.420943	997.978490	1463.178020	-590.611146	885.870000	1547.729892	-659.216823	839.471152	1467.939427	-405.102006	789.258310	1392.657376	-411.153598	722.572253	1439.018929	-409.935771	610.157295	1352.732396	-380.534240	603.616811	1353.198350	-463.599908	1013.542967	1407.661927	-871.503996	1031.944646	1339.142765	-857.181908	943.792604	1309.149832	-888.799045	990.997642	1151.281184	-933.313127	928.535405	1130.918156	-872.766046	673.842555	1266.925028	-366.101196	783.551590	1137.375814	-432.537978	741.156093	1115.116883	-377.605148	1066.836268	1191.401667	-879.208577	1126.817578	1281.402862	-736.735664	1170.481973	1224.560829	-746.130866	1049.894805	401.522176	-599.317086	
400	  3.333333	948.992644	1032.308664	-787.099758	962.755504	1051.314568	-528.838230	776.994899	1085.705084	-682.208233	779.238326	1083.930581	-596.464810	961.753975	906.259047	-468.056566	1074.868436	861.586629	-480.343021	1092.686621	736.150749	-504.254104	809.439479	837.583975	-821.015519	809.879614	707.585256	-807.226958	701.659241	628.326841	-774.938872	1185.788793	518.461732	-596.358982	1129.313794	475.391672	-528.021085	627.707916	399.649063	-704.916361	538.500306	355.082736	-740.795677	486.778087	259.584942	-665.339617	896.472861	320.591212	-615.714977	1085.963611	183.337839	-626.164345	1012.282928	192.341366	-538.222925	316.537682	232.805236	-634.577874	474.760828	 65.913779	-598.786376	400.739970	 75.783053	-687.536974	1005.748737	1514.113550	-801.170319	915.367361	1533.420486	-473.853569	996.452524	1469.959621	-588.941595	885.611592	1552.396046	-659.458937	835.203685	1478.462400	-407.078254	784.019038	1403.748089	-412.932206	717.901082	1450.986930	-416.685368	603.286912	1365.779831	-388.659957	600.167199	1365.614656	-471.881684	1016.056744	1416.074586	-869.153139	1034.245059	1347.502710	-854.939924	946.273384	1317.574145	-887.890191	993.465409	1159.046167	-930.498863	930.243425	1138.945545	-870.937624	665.420268	1279.629545	-371.847915	777.144752	1148.700597	-434.242555	732.613166	1126.741990	-380.980711	1067.898836	1201.036379	-875.590693	1122.689218	1293.791426	-732.766318	1167.925845	1237.658645	-740.400189	1078.211584	391.738183	-600.655115	
401	  3.341667	955.503763	1035.336655	-786.446531	966.504248	1057.482594	-529.417589	782.428843	1091.063675	-685.372064	784.183782	1090.037220	-599.149115	964.765730	913.230442	-468.511546	1076.792948	864.631778	-479.742569	1093.755975	739.163788	-508.203511	804.803579	845.710580	-821.894428	798.184906	716.532996	-807.581685	687.108074	643.657312	-773.971894	1202.645075	517.302378	-596.777234	1150.505850	468.486189	-529.051482	606.568051	415.317314	-706.384369	516.405802	372.593346	-742.937429	466.759031	273.303162	-670.380361	936.442470	288.777843	-619.808327	1140.990885	174.913840	-631.143703	1065.974181	173.733709	-543.542468	302.607200	253.252594	-641.470312	439.348112	 69.597494	-601.975173	367.894855	 86.453235	-691.065339	1007.119242	1521.465903	-798.781031	913.244958	1539.005989	-474.439164	995.317774	1475.689687	-587.427248	885.502133	1556.521866	-659.607245	831.409520	1487.851016	-409.284742	779.220599	1413.753511	-414.924593	713.982694	1461.647296	-423.271324	597.180002	1377.426444	-396.759336	597.760325	1376.284454	-479.937831	1018.476090	1424.242394	-867.023994	1036.319374	1355.606784	-853.065562	948.733063	1326.118059	-887.751233	995.429295	1166.525429	-928.255654	931.116215	1146.955770	-869.825377	657.982083	1291.326911	-377.404379	771.891640	1158.978864	-435.519196	725.621963	1137.442343	-383.673680	1068.433994	1209.934251	-872.507440	1118.685682	1304.779338	-729.281657	1165.294189	1249.245086	-735.348005	1108.944572	380.282535	-602.302268	
402	  3.350000	961.135325	1038.560494	-785.460649	969.712497	1062.244838	-530.567101	787.771553	1096.414528	-688.510330	788.813642	1095.597051	-601.915007	966.070790	917.490716	-469.438588	1077.474088	864.886316	-479.589157	1092.787612	739.711947	-512.213233	800.852604	854.621557	-823.263499	788.245470	725.831899	-808.149965	675.511467	658.843999	-771.666455	1217.703044	515.098480	-597.220333	1170.926956	460.813145	-529.977364	589.108220	431.101369	-705.830263	499.087686	389.438496	-743.825069	449.121575	287.995901	-673.678616	978.247847	258.358429	-623.356916	1195.064933	169.037370	-636.119497	1120.172193	157.867627	-548.660682	291.452347	275.074524	-648.619957	406.744161	 77.160633	-606.211493	338.146251	101.051467	-695.276329	1008.371363	1528.181156	-796.401416	911.452864	1543.551235	-475.026537	994.603493	1480.289557	-586.094623	885.521068	1560.095131	-659.688231	828.127185	1495.716849	-411.606262	775.015432	1422.223514	-417.110975	710.841246	1470.612187	-429.554636	591.939081	1387.442984	-404.527642	596.024669	1385.016299	-487.401081	1020.763285	1431.977875	-865.186656	1038.173850	1363.253610	-851.526728	951.212683	1334.497130	-888.358717	996.959963	1173.471321	-926.588843	930.940420	1154.822359	-869.391527	651.708647	1301.801292	-382.544484	767.832589	1168.015461	-436.287432	720.237676	1146.954745	-385.559735	1068.504578	1217.832634	-869.812118	1114.950476	1314.240948	-726.280077	1162.531022	1259.105976	-730.982722	1140.416873	368.358953	-604.088988	
